<svg xmlns="http://www.w3.org/2000/svg" width="1200" height="420" viewBox="0 0 1200 420" role="img" aria-labelledby="title desc">
  <title id="title">フォーム UX と a11y</title>
  <desc id="desc">422 で再描画されたフォームに、エラーサマリ、aria-invalid、aria-describedby、送信中ボタン無効化が付く様子を示す図。</desc>
  <defs>
    <marker id="arrow" markerWidth="7" markerHeight="7" refX="6" refY="3.5" orient="auto">
      <path d="M0,0 L7,3.5 L0,7 z" fill="#0284c7"/>
    </marker>
  </defs>
  <rect width="1200" height="420" fill="#ffffff"/>
  <style>
    .title { font: 700 28px 'Hiragino Sans', 'Yu Gothic', sans-serif; fill: #0f172a; }
    .small { font: 600 15px 'Hiragino Sans', 'Yu Gothic', sans-serif; fill: #475569; }
    .tiny { font: 500 13px 'Hiragino Sans', 'Yu Gothic', sans-serif; fill: #64748b; }
  </style>
  <text x="44" y="42" class="title">フォーム UX と a11y</text>
  <rect x="38" y="82" width="1124" height="280" rx="18" fill="#f8fafc" stroke="#cbd5e1" stroke-width="2"/><rect x="90" y="138" width="300" height="170" rx="16" fill="#f8fafc" stroke="#cbd5e1" stroke-width="2"/><text x="240" y="166" text-anchor="middle" style="font: 700 18px 'Hiragino Sans', 'Yu Gothic', sans-serif; fill: #0f172a;"><tspan x="240" dy="0">エラーサマリ</tspan></text><rect x="96" y="182" width="288" height="28" rx="8" fill="#fee2e2" stroke="#ef4444" stroke-width="2"/><text x="240" y="201" text-anchor="middle" style="font: 700 13px 'Hiragino Sans', 'Yu Gothic', sans-serif; fill: #0f172a;"><tspan x="240" dy="0">role=&quot;alert&quot; / tabindex=-1</tspan></text><rect x="460" y="138" width="300" height="170" rx="16" fill="#f8fafc" stroke="#cbd5e1" stroke-width="2"/><text x="610" y="166" text-anchor="middle" style="font: 700 18px 'Hiragino Sans', 'Yu Gothic', sans-serif; fill: #0f172a;"><tspan x="610" dy="0">入力欄</tspan></text><rect x="500" y="188" width="220" height="32" rx="8" fill="#fff" stroke="#ef4444" stroke-width="2"/><text x="610" y="209" text-anchor="middle" style="font: 700 13px 'Hiragino Sans', 'Yu Gothic', sans-serif; fill: #0f172a;"><tspan x="610" dy="0">aria-invalid / describedby</tspan></text><rect x="830" y="138" width="260" height="170" rx="16" fill="#f8fafc" stroke="#cbd5e1" stroke-width="2"/><text x="960" y="166" text-anchor="middle" style="font: 700 18px 'Hiragino Sans', 'Yu Gothic', sans-serif; fill: #0f172a;"><tspan x="960" dy="0">送信ボタン</tspan></text><rect x="874" y="190" width="172" height="40" rx="10" fill="#dbeafe" stroke="#0284c7" stroke-width="2"/><text x="960" y="214" text-anchor="middle" style="font: 700 13px 'Hiragino Sans', 'Yu Gothic', sans-serif; fill: #0f172a;"><tspan x="960" dy="0">data-turbo-submits-with</tspan></text><line x1="390" y1="208" x2="454" y2="208" stroke="#0284c7" stroke-width="2.5" fill="none" marker-end="url(#arrow)" /><line x1="760" y1="208" x2="820" y2="208" stroke="#0284c7" stroke-width="2.5" fill="none" marker-end="url(#arrow)" />
</svg>
